# xmcd CD database file
#
# Track frame offsets:
#	150
#	13674
#	24954
#	33871
#	46542
#	60808
#	74676
#	84906
#	97659
#	109080
#	121690
#	134247
#	144827
#	155231
#	166562
#	176763
#	189939
#	204092
#	216757
#	229456
#	241395
#	255166
#	266173
#	282146
#	293570
#
# Disc length: 4102 seconds
#
# Revision: 0
# Processed by: cddbd v1.5.2PL0 Copyright (c) Steve Scherf et al.
# Submitted via: CDex 1.51
#
DISCID=45100419
DTITLE=Ray Charles - Classic Ray
DYEAR=2005
DGENRE=Blues
TTITLE0=Baby let me hold your hand
TTITLE1=Confession blues
TTITLE2=All to myself alone
TTITLE3=Lonely boy
TTITLE4=Kissa me baby
TTITLE5=Late in the evening blues
TTITLE6=Ain't that fine?
TTITLE7=Don't put all your deams in one basket
TTITLE8=What have i done?
TTITLE9=You'll never miss the water (Until the well runs dry)
TTITLE10=Blues before sunrise
TTITLE11=The ego song
TTITLE12=I wonder who's kissing her now
TTITLE13=Back home (Instrumental)
TTITLE14=Sittin' on top of the world
TTITLE15=Alone in the city
TTITLE16=Someday (Blues is my middle name)
TTITLE17=Why did you go?
TTITLE18=Can anyone ask for more?
TTITLE19=I love you, I love you (I'll never let you go)
TTITLE20=Misery in my heart
TTITLE21=I'll do anything but work
TTITLE22=I found by baby there
TTITLE23=Suitar blues (Instrumental)
TTITLE24=Walkin's and talkin'
EXTD=YEAR: 2005
EXTT0=
EXTT1=
EXTT2=
EXTT3=
EXTT4=
EXTT5=
EXTT6=
EXTT7=
EXTT8=
EXTT9=
EXTT10=
EXTT11=
EXTT12=
EXTT13=
EXTT14=
EXTT15=
EXTT16=
EXTT17=
EXTT18=
EXTT19=
EXTT20=
EXTT21=
EXTT22=
EXTT23=
EXTT24=
PLAYORDER=
